<?xml version="1.0" encoding="utf-8"?>

<!-- License Agreement at http://iconmonstr.com/license/ -->

<!DOCTYPE svg PUBLIC "-//W3C//DTD SVG 1.1//EN" "http://www.w3.org/Graphics/SVG/1.1/DTD/svg11.dtd">
<svg version="1.1" xmlns="http://www.w3.org/2000/svg" xmlns:xlink="http://www.w3.org/1999/xlink" x="0px" y="0px"
	 viewBox="0 0 512 512" enable-background="new 0 0 512 512" xml:space="preserve">
<path id="infinity-3-icon" d="M366.464,150.482c-104.364,0-140.409,168.258-220.928,168.258c-33.875,0-54.185-25.56-54.185-62.74
	c0-37.181,20.31-62.74,54.185-62.74c26.559,0,45.165,18.06,64.853,41.478l26.023-33.091c-24.131-25.761-51.349-51.164-90.876-51.164
	C88.633,150.482,50,195.846,50,256s38.633,105.518,95.536,105.518c104.519,0,145.519-168.258,220.928-168.258
	c33.875,0,54.185,25.559,54.185,62.74c0,37.181-20.31,62.74-54.185,62.74c-26.821,0-45.999-17.941-64.634-39.667l-26.146,32.666
	c23.855,25.053,50.779,49.778,90.78,49.778C423.366,361.518,462,316.154,462,256S423.366,150.482,366.464,150.482z"/>
</svg>
