<?xml version="1.0" encoding="utf-8"?>

<!-- The icon can be used freely in both personal and commercial projects with no attribution required, but always appreciated. 
You may NOT sub-license, resell, rent, redistribute or otherwise transfer the icon without express written permission from iconmonstr.com -->

<!DOCTYPE svg PUBLIC "-//W3C//DTD SVG 1.1//EN" "http://www.w3.org/Graphics/SVG/1.1/DTD/svg11.dtd">
<svg version="1.1" xmlns="http://www.w3.org/2000/svg" xmlns:xlink="http://www.w3.org/1999/xlink" x="0px" y="0px"
	 viewBox="0 0 512 512" enable-background="new 0 0 512 512" xml:space="preserve">
<path id="network-5-icon" d="M56.378,98.635c5.199-8.884,16.402-19.473,40.251-19.473c30.323,0,69.217,17.214,96.173,31.453
	c-0.067,0.028-0.135,0.054-0.202,0.082c-11.163,4.722-21.667,10.621-31.426,17.624c-27.777-12.979-50.037-19.159-64.545-19.159
	c-4.352,0-12.003,0.601-14.358,4.625c-3.683,6.293-1.798,28.29,28.621,70.82c0.213,0.297,0.432,0.596,0.646,0.894
	c-5.322,10.217-9.621,20.999-12.808,32.816C74.313,187.378,36.636,132.371,56.378,98.635z M319.398,110.697
	c11.164,4.722,21.667,10.621,31.425,17.624c27.777-12.979,50.038-19.159,64.546-19.159c4.352,0,12.003,0.601,14.358,4.625
	c8.619,14.728-18.374,56.636-29.268,71.714c5.427,10.417,9.677,21.204,12.809,32.815c24.403-30.92,62.09-85.951,42.352-119.682
	c-5.199-8.884-16.402-19.473-40.251-19.473c-30.312,0-69.192,17.201-96.173,31.453C319.264,110.644,319.331,110.669,319.398,110.697
	z M153.371,387.214c-24.15,10.568-43.614,15.624-56.735,15.624c-0.002,0-0.004,0-0.006,0c-4.352,0-12.005-0.602-14.358-4.625
	c-3.594-6.142-1.872-27.252,26.49-67.799c-5.104-10.788-9.091-22.152-11.806-34.465c-23.689,30.393-60.027,84.183-40.577,117.415
	c5.197,8.883,16.398,19.471,40.247,19.474c0.004,0,0.007,0,0.01,0c27.23,0,61.303-13.93,86.422-26.445
	C172.474,401.093,162.55,394.681,153.371,387.214z M415.043,295.949c-2.739,12.417-6.746,23.771-11.806,34.466
	c28.361,40.547,30.083,61.656,26.489,67.799c-2.354,4.023-10.006,4.624-14.356,4.624c-13.122,0-32.589-5.057-56.741-15.626
	c-9.179,7.468-19.103,13.88-29.687,19.18c25.121,12.517,59.195,26.446,86.428,26.446c23.849,0,35.051-10.59,40.249-19.473
	C475.076,380.12,438.734,326.358,415.043,295.949z M269.089,218.054c0.004,0.001,0.012,0.001,0.016,0.001
	c0.127,0.011,0.232-0.086,0.359-0.093c0.359-0.023,1.512,0.773,1.91,0.943c0.129,0.056,0.271,0.075,0.393,0.149
	c0.229,0.138,0.396,0.359,0.637,0.475c0.082,0.039,0.217,0.103,0.41,0.068c0.135-0.023,0.338-0.061,0.553-0.765
	c0.088-0.28-0.25-0.428-0.217-0.689c0.051-0.4,0.367-0.693,0.441-1.087c0.033-0.179-0.025-0.271-0.178-0.286
	c-0.023-0.004-0.047-0.003-0.068,0.002c-0.102,0.019-0.193,0.078-0.299,0.092c-0.34,0.035-0.301-0.117-0.594,0.056
	c-0.152,0.089-0.287,0.204-0.463,0.245c-0.168,0.038-0.318-0.07-0.486-0.054c-0.229,0.019-0.371,0.257-0.611,0.25
	c-0.32-0.009-0.527-0.288-0.826-0.341c-0.193-0.034-0.303,0.184-0.486,0.168c-0.188-0.016-0.133-0.091-0.285-0.141
	c-0.236-0.079-0.508,0.771-0.457,0.854C268.911,218.03,269.022,218.048,269.089,218.054z M244.694,182.423
	c-0.023-0.025-0.039-0.061-0.041-0.11c-0.01-0.146,0.143-0.653,0.359-0.697c0.004-0.001,0.012-0.003,0.016-0.004
	c0.055-0.012,0.09-0.01,0.168,0.109c0.016,0.023,0.043,0.036,0.07,0.03c0.02-0.002,0.033-0.015,0.039-0.03
	c0.062-0.151,0.082-0.316,0.15-0.466c0.018-0.037,0.018-0.08,0.002-0.116c-0.002-0.002-0.002-0.004-0.004-0.007
	c-0.117,0.063-0.264,0.038-0.354-0.06s-0.105-0.245-0.035-0.357c0.057-0.092,0.135-0.173,0.238-0.229
	c0.012-0.005,0.021-0.011,0.033-0.016c0.057-0.022,0.119-0.022,0.176,0.002c0.096,0.039,0.207,0.027,0.293-0.038
	c0.016-0.012,0.033-0.025,0.049-0.037c0.307-0.244,0.574-0.526,0.803-0.845c0.111-0.155,0.223-0.273,0.316-0.309
	c0.146-0.056,0.291-0.075,0.434-0.075c0.375,0.001,0.76,0.05,1.125,0.144c0.152,0.041,0.504,0.202,0.084,0.463
	c-0.189,0.117-0.414,0.167-0.582,0.326c-0.123,0.114-0.135,0.289-0.223,0.421c-0.016,0.023-0.016,0.054-0.002,0.075
	c0.012,0.023,0.039,0.037,0.066,0.035c0.344-0.021,2.16-0.094,1.756,0.469c-0.174,0.242-0.32,0.513-0.426,0.793
	c-0.25,0.675-0.283,1.42-0.078,2.128c0.057,0.191,0.078,0.393,0.061,0.568c-0.02,0.196-0.076,0.391-0.055,0.59
	c0.02,0.196,0.229,0.335,0.174,0.549c-0.004,0.018-0.002,0.037,0.006,0.054c0.002,0.005,0.008,0.007,0.012,0.006
	c0.041-0.006,0.068-0.01,0.09-0.01c0.17,0.001,0.35-0.004,0.521-0.016c0.055-0.004,0.07,0.012,0.098,0.042
	c0.004,0.007,0.41,0.878,0.332,0.984c-0.002,0.002-0.002,0.004-0.004,0.007c-0.086,0.123-0.074,0.291,0.027,0.403
	c0.115,0.129,0.217,0.269,0.232,0.464c0.01,0.089,0.01,0.094-0.396,0.407c-0.043,0.031-0.062,0.087-0.049,0.139
	c0.357,0.186,0.357,0.186,0.551,0.083c0.291-0.16,1.318,0.368,1.363,0.394c0.004,0.002,0.008,0.005,0.01,0.007
	c0.555,0.309,0.473,0.744,0.453,0.829c-0.07,0.274-0.146,0.417-0.271,0.486c-0.236,0.131-0.469,0.279-0.688,0.436
	c-0.037,0.025-0.096,0.017-0.195-0.05c-0.016-0.011-0.037-0.026-0.055-0.04c-0.027-0.021-0.059-0.026-0.088-0.018
	c-0.027,0.009-0.045,0.035-0.041,0.062c0.043,0.37,0.256,0.699,0.576,0.89c0.006,0.003,0.008,0.005,0.012,0.008
	c0.006,0.003,0.012,0.011,0.012,0.019c0.018,0.376-0.896,0.55-0.904,0.55c0,0,0,0-0.002,0s-0.002,0-0.004,0
	c-0.303-0.026-0.588,0.157-0.896,0.109c-0.254-0.04-0.447-0.258-0.717-0.262c-0.639-0.012-0.639-0.012-0.758-0.084
	c-0.041-0.024-0.475-0.141-0.631-0.149c-0.426-0.021-0.75,0.278-1.143,0.361c-0.352,0.072-0.605-0.262-0.947-0.235
	c-0.48,0.042-0.646,0.501-0.975,0.747c-0.029,0.023-0.068,0.03-0.104,0.019c-0.006,0-0.008-0.001-0.012-0.002
	c-0.242-0.468-0.689-0.286-0.932-0.136c-0.072,0.044-0.139,0.085-0.199,0.12c-0.086,0.053-0.197,0.033-0.26-0.046
	c-0.064-0.078-0.057-0.192,0.014-0.265c0.129-0.135,0.275-0.282,0.414-0.42c0.41-0.411,0.947-0.664,1.514-0.725
	c0.186-0.021,0.373-0.018,0.557,0.003c0.348,0.04,0.596-0.141,0.844-0.318c0.061-0.043,0.086-0.121,0.061-0.19
	c-0.021-0.07-0.09-0.117-0.162-0.113c-0.098,0.003-0.191,0.029-0.281,0.109c-0.023,0.02-0.049,0.035-0.076,0.046
	c-0.109,0.048-0.232,0.05-0.342,0.006c-0.025-0.01-0.049-0.023-0.068-0.044c-0.229-0.241-0.52-0.415-0.842-0.499
	c-0.342-0.089-0.66,0.211-1.004,0.047c-0.225-0.107-0.191-0.441-0.141-0.499c0.055-0.059,0.162-0.073,0.326-0.099
	c0.254-0.035,1.057-0.32,1.172-0.449c0.105-0.117,0.344-0.912,0.025-0.892c-0.166,0.015-0.295,0.147-0.455,0.184
	c-0.035,0.008-0.072-0.002-0.098-0.025c-0.027-0.024-0.041-0.06-0.037-0.096c0.002-0.017,0.006-0.03,0.012-0.044
	c0.002-0.002,0.004-0.002,0.006-0.005c0.107-0.184,0.453-0.08,0.461-0.355c0.002-0.075-0.049-0.126-0.094-0.18
	c-0.049-0.06-0.053-0.146-0.008-0.21c0.043-0.064,0.125-0.092,0.199-0.067c0.002,0,0.002,0,0.002,0
	c0.443,0.147,0.93,0.033,1.262-0.296c0.33-0.33,0.447-0.816,0.303-1.26c-0.004-0.011-0.008-0.021-0.01-0.031
	c-0.002-0.012-0.006-0.023-0.008-0.033c-0.037-0.179-0.154-0.326-0.314-0.402c-0.113-0.056-0.207-0.146-0.266-0.26
	c-0.006-0.007-0.01-0.011-0.018-0.013c-0.016-0.005-0.031-0.003-0.045,0.006c-0.426,0.258-0.436,0.258-0.512-0.064
	c-0.004-0.014-0.012-0.024-0.021-0.032c-0.014-0.009-0.014-0.009-0.014-0.009c-0.115,0.033-0.238-0.019-0.297-0.125
	c-0.057-0.105-0.031-0.238,0.062-0.314c0.092-0.079,0.217-0.176,0.373-0.299c0.273-0.214,0.184-0.51,0.193-0.782
	c0-0.048-0.02-0.093-0.059-0.121c-0.037-0.028-0.086-0.037-0.133-0.021c-0.117,0.038-0.236,0.084-0.352,0.134
	c-0.145,0.063-0.18,0.104-0.277,0.224c-0.105,0.127-0.188,0.223-0.252,0.298c-0.053,0.062-0.141,0.075-0.209,0.03
	c-0.066-0.045-0.092-0.134-0.055-0.206c0.02-0.036,0.041-0.071,0.068-0.105c0-0.001,0-0.001,0-0.001
	C244.999,183.188,244.974,182.729,244.694,182.423z M255.999,121.084c-77.137,0-139.668,62.531-139.668,139.667
	S178.862,400.42,255.999,400.42s139.668-62.533,139.668-139.669S333.136,121.084,255.999,121.084z M297.548,200.941
	c0.641,0.192,1.094,0.655,1.291,1.223c0.008,0.023,0.018,0.044,0.029,0.066c0.027,0.051,0.141,0.215,0.479,0.177
	c0.133-0.019,1.389-1.211,1.436-1.306c0.094-0.192-0.178-0.245-0.367-0.346c-0.447-0.238-0.74-0.69-0.777-1.196
	c-0.037-0.505,0.189-0.994,0.598-1.294c0.002-0.003,0.004-0.005,0.008-0.006l2.299-1.33c0.004-0.001,0,0,0.004-0.001
	c0.039-0.023,0.084-0.037,0.129-0.043c0.004-0.001,0.006-0.001,0.006-0.001c0.145-0.017,1.152-0.614,1.518-0.656
	c0.107-0.016,0.35,0.25,0.277,0.446c-0.047,0.127-0.158,0.328-0.422,0.48c-0.314,0.181-1.084,0.579-1.043,0.936
	c0.053,0.447,0.578,0.281,0.852,0.454c0.205,0.132,0.135,0.226,0.08,0.416c-0.002,0.004-0.002,0.009-0.004,0.013
	c-0.15,0.535-0.391,1.032-0.713,1.484c-0.018,0.025-0.029,0.053-0.025,0.079c0.064,0.344,0.064,0.344,1.258,0.819
	c0.533,0.211,1.135-0.071,1.646,0.243c1.164,0.715,2.029,1.85,3.352,2.328c0.438,0.158,1.895,0.759,2.223,1.867
	c0.602,2.039-1.865,2.424-2.738,1.983c-0.504-0.254-0.732,0.312-1.094,0.484c-0.016,0.008-0.035,0.016-0.051,0.024
	c-0.258,0.006-0.525-0.055-0.701-0.103c-0.436-0.122-2.26-0.138-2.939-0.421c-0.004-0.003-0.008-0.004-0.012-0.005
	c-0.148-0.075-2.461-0.943-2.629-0.893c-0.736,0.227-1.604-0.306-2.287,0.228c-0.402,0.313-0.891,0.481-1.289,0.798
	c-0.555,0.437-0.578,0.454-0.586,0.582c-0.002,0.013-0.002,0.025-0.002,0.037c-0.018,0.147-0.033,0.273-0.211,0.35
	c-0.215,0.092-0.559,0.144-0.729,0.144c-0.496,0.001-0.992,0.087-1.49,0.029c-0.449-0.051-0.881,0.254-1.332,0.056c0,0,0,0-0.002,0
	c-0.828-0.351-1.531-0.917-2.053-1.649l-0.521-0.728c0-0.001,0-0.001,0-0.003c-0.037-0.053-0.041-0.122-0.008-0.179
	c0.045-0.077,0.135-0.137,0.316,0.038c0,0.001,0.002,0.002,0.004,0.003c0.025,0.029,0.068,0.035,0.104,0.018
	c0.035-0.019,0.051-0.059,0.043-0.097c-0.104-0.432-0.283-1.073-0.137-1.496c0.004-0.005,0.004-0.008,0.006-0.013
	c0.088-0.252,0.445-0.194,0.531-0.45c0.1-0.297-0.066-0.57-0.088-0.856c-0.012-0.135,0.133-1.392,0.133-1.396
	c0.021,0,0.025,0,0.025,0c0.24-0.115,0.346-0.295,0.395-0.5c0.137-0.542,0.377-1.042,0.713-1.486c0.094-0.12,0.193-0.4,0.439-1.098
	c0.094-0.266,0.117-0.331,0.52-0.442c0.49-0.137,1.008-0.178,1.516-0.115c0.268,0.033,0.594,0.089,0.979,0.184
	c0.035,0.008,0.066,0.033,0.082,0.065c0.021,0.043,0.006,0.095-0.039,0.119c-0.109,0.062-0.172,0.188-0.148,0.316
	c0.025,0.144,0.148,0.248,0.295,0.25c0.182,0.002,0.344-0.073,0.49-0.141c0.244-0.111,0.332-0.151,0.535-0.016
	c0.158,0.107,0.242,0.294,0.217,0.483c-0.055,0.415-0.615,0.407-0.609,0.742C297.331,200.78,297.419,200.899,297.548,200.941z
	 M255.999,372.543c-31.777,0-60.449-13.262-80.805-34.547c-0.928-0.971-2.094-3.434-2.102-3.768
	c-0.023-0.777-0.18-1.555-0.465-2.279c-0.24-0.613-0.523-1.219-0.801-1.824c-0.938-2.045,3.281-2.389,4.453-4.309
	c0-0.004,0-0.004,0-0.006c0.09-0.176,0.797-0.266,1.646,0.34c0.678,0.484,1.66-0.635,1.57-1.027c-0.281-1.254-0.283-1.459-0.129-2.6
	c0.264-1.949-0.27-6.779-0.498-7.432c-0.771-2.205-0.936-3.322-0.947-3.855c-0.006-0.393,1.045-0.689,1.234-1.344
	c0.383-1.322,2.637-3.773,3.334-4.953c0.605-1.023,1.088-2.182,0.941-3.361c-0.332-2.65-8.777-12.324-11.17-14.123
	c-1.891-1.42-3.254-1.43-3.254-1.434c0.111-1.186-0.348-2.354-1.234-3.148c-0.334-0.301-0.584-0.697-0.83-1.096
	c-0.332-0.539-0.918-0.865-1.549-0.865c-0.633,0-1.221,0.324-1.551,0.861c0,0-0.002,0-0.002,0.002
	c0.566-1.893,0.594-1.98-0.904-3.82c-0.805-0.986-0.908-0.893,0.061-2.709c0.141-2.48-4.715-10.398-9.016-15.247
	c-0.141-0.157-0.348-0.24-0.602-0.194c-0.441-0.404-2.57-8.229-3.043-10.068c-0.02-0.088,0-0.181,0.059-0.25
	c0.375-0.451,0.525-1.047,0.41-1.62c-0.094-0.476-0.279-1.027-0.309-1.51c-0.053-0.893-0.893-1.624-1.043-1.519
	c-0.232,0.165-0.48,0.184-0.699,0.093c-0.225-0.091-0.391-0.286-0.438-0.562c-0.18-0.967-1.021-1.663-2.006-1.662
	c-0.414,0-0.479-0.086-0.545-0.41c-0.014-0.067-0.016-0.137-0.004-0.206c0.49-2.913,0.826-4.467,1.119-5.736
	c0.004-0.017,0.008-0.034,0.01-0.051c4.447-19.935,14.215-37.861,27.738-52.211c0.057-0.057,0.135-0.079,0.211-0.058
	c1.328,0.369,1.229,0.081,2.365-1.292c0.658-0.797,1.855-1.095,2.518-1.327c0.666-0.233,1.766-0.341,1.77-0.341
	c0.639-0.119,2.473,0.296,3.006-0.135c0.445-0.361-0.127-0.486,0.137-0.88c0.25-0.376,0.465-0.777,0.637-1.195
	c0.146-0.354,0.584-0.46,0.908-0.659c0.553-0.34,0.02-0.338-0.086-0.52c-0.082-0.139,0.008-0.648,0.213-0.683
	c0.002,0,0.004,0.001,0.008,0.003c0.291,0.269,0.697,0.378,1.082,0.288c0.336-0.076,0.455-0.194,0.553-0.4
	c0.068-0.143,0.191-0.248,0.342-0.293c0.002,0,0.004-0.001,0.006-0.001c0.908-2.183-3.129-0.946-3.131-0.95
	c-0.162-0.323,2.133-1.054,2.49-1.157c0.002,0.002,0.004,0.003,0.004,0.005c0.004,0.002,0.006,0.004,0.012,0.005
	c0.213,0.058,0.404,0.025,0.588-0.046c1.09-0.429,2.322,0.107,2.752,1.197c0,0.001,0,0.002,0,0.002
	c0.117,0.293,0.365,0.515,0.67,0.595c0.357,0.096,0.715,0.199,1.096,0.057c1.959-0.729,2.529-0.104,4.164-0.829
	c0.004-0.002,0.008-0.004,0.014-0.007c2.131-0.951,2.225-5.677,5.121-8.272c0.285-0.255,0.592-0.488,0.916-0.692
	c0.529-0.334,0.875-0.851,1.244-1.343c0.178-0.232,0.373-0.465,0.578-0.674c0.248-0.252,0.295-0.639,0.113-0.941
	c-0.188-0.311-0.562-0.451-0.906-0.338c-0.244,0.079-0.703,0.233-0.84,0.022c-0.049-0.075-0.049-0.172-0.004-0.248
	c0.102-0.17,0.375-0.521,0.398-0.683c0.018-0.134,0.086-0.257,0.191-0.345c0.137-0.115,0.289-0.216,0.447-0.3
	c1.504-0.787,3.023-1.544,4.566-2.266c0.248-0.116,0.539-0.062,0.729,0.126c0.404,0.397,0.709-0.09,1.084-0.497
	c0.463-0.506,1.033-0.91,1.664-1.18c0-0.001,0.002-0.001,0.002-0.002c-0.08,0.068-0.152,0.143-0.211,0.234
	c0,0.551-0.723,0.865-0.17,1.015c0.178,0.048,0.617-0.352,0.672-0.379c0.062-0.032,0.127,0.006,0.039,0.156
	c0.465-0.241,1.109-0.8,1.656-1.314c0.648-0.613,1.422-1.099,2.258-1.414c0.928-0.353,0.896-0.062,0.688-0.007
	c-0.287,0.077-0.545,0.226-0.779,0.704c-0.07,0.146-0.48,0.534-0.611,0.646c0,0,1.1-0.464,1.967-0.613
	c0.246-0.044,0.518-0.21,0.947-0.486c0.117-0.076,0.135,0.015,0.219,0.117c0.09,0.11,0.691-0.153,0.811-0.275
	c0-0.001,0-0.001,0.002-0.001c0.078-0.083,0.098-0.207,0.045-0.31c-0.07-0.137-0.436-0.06-0.332-0.256
	c0.086-0.164,0.375-0.048,0.527-0.161c0.037-0.028,0.021-0.088-0.027-0.094c-0.002-0.005-0.002-0.008-0.002-0.014
	c-0.02-0.067,0-0.14,0.049-0.189c0.1-0.1,0.9-0.482,0.875-0.596c-0.004-0.004-0.004-0.006-0.004-0.009
	c3.842-1.27,7.518-2.475,11.566-3.14c0.822-0.136,0.818,0.7,0.426,0.838c-0.906,0.312-1.93,0.322-2.691,0.979
	c-0.066,0.057-0.084,0.152-0.041,0.229c0.041,0.076,0.131,0.113,0.217,0.088c0.154-0.046,0.432-0.147,1.096-0.395
	c0.115-0.043,0.256,0.036,0.238,0.16c-0.008,0.046-0.037,0.086-0.082,0.104c-0.326,0.144-0.689,0.205-1.006,0.371
	c-0.062,0.033-0.096,0.103-0.084,0.172c0.031,0.168-0.119,0.493-0.02,0.587c0.002,0.001,0.002,0.002,0.002,0.004
	c-0.023,0.029-3.23,2.213-4.443,2.291c-0.002,0-0.004,0.001-0.006,0.001c-1.455,0.064-2.799,0.649-3.197,0.979
	c-0.402,0.334-0.842,0.618-1.309,0.851c-0.98,0.487-1.855,1.314-2.426,1.936c-0.291,0.318,0.221,0.433,0.621,0.59
	c0,0,0.277,0.088-0.148,0.148c-1.609,0.22-2.988,2.034-3.404,2.64c-0.08,0.116-0.08,0.269-0.002,0.383
	c0.002,0.005,0.006,0.008,0.008,0.013c-0.744,0.737-0.816,0.807-1.363,1.921c-0.035,0.069-0.023,0.153,0.029,0.211
	c0.068,0.079,0.949,0.131,1.027,0.287c0.119,0.233-0.34,0.435-0.238,0.625c0.027,0.054,0.076,0.09,0.135,0.102
	c0.141,0.03-0.443,0.605-0.525,0.728c-0.135,0.204,0.043,0.737,0.348,0.724c0.309-0.012,0.508-0.202,0.799-0.538
	c0,0,0.793-0.442,1.326-0.887c0.52-0.43,1.576-0.555,1.967-1.292c0.213-0.401,0.6-0.661,0.918-0.729
	c0.139-0.028,0.275,0.049,0.324,0.182c0.041,0.183,2.479-0.896,2.393-1.32c-0.076-0.395,0.15-0.435,0.404-0.325
	c0.178,0.074,0.324,0.02,0.439-0.076c0.732-0.61,1.842-1.351,2.764-1.114c0.225,0.057,0.461,0.025,0.66-0.089
	c0.924-0.527,1.027-0.279,0.807-0.194c-0.24,0.093-0.916,0.338-0.781,0.557c0.035,0.055,0.102,0.077,0.162,0.054
	c0.396-0.156,0.811-0.238,1.236-0.245c0.59-0.01,1.461-0.106,2.238-0.521c0.033-0.017,0.068-0.035,0.104-0.053
	c0.006-0.004,0.014-0.007,0.02-0.01c1.846-0.937,2.607-1.553,2.996-1.29c0.119,0.081,0.186,0.221,0.174,0.366
	c0.002,0.001,0.004,0.002,0.006,0.004c0.303,0.213,0.625,0.007,0.986-0.086c0,0,0.297,0.302,1.408,0.287
	c-0.264,0.679,11.375-1.849,18.742-7.954c2.018-1.672,4.262-3.219,6.502-4.605c12.17,0.666,23.818,3.271,34.645,7.521
	c0.357,0.142,0.568,0.513,0.51,0.894c-0.088,0.554-0.736,0.71-0.787,0.843c-0.154,0.406,0.893,0.938,1.199,1.247
	c0.17,0.171,0.176,0.444,0.014,0.622c-0.004,0.003-0.008,0.006-0.014,0.003c-0.518-0.124-1.064,0.01-1.467,0.358
	c-0.393,0.341-0.949,0.579-1.275,0.699c-0.193,0.071-0.373,0.181-0.525,0.321c0,0.001,0,0.002,0,0.002
	c-0.182-0.054-0.375-0.049-0.553,0.017c-0.73,0.27-1.148,1.654-1,2.165c0.059,0.199,0.018,0.418-0.117,0.585
	c-0.17,0.214-0.455,0.297-0.713,0.209c-0.152-0.053-0.58,0.312-0.371,0.471c0.246,0.186-0.092,0.321-0.344,0.497
	c-0.121,0.086-0.281,0.115-0.434,0.069c-0.893-0.271-0.84-0.494-1.113,0.202c-0.127,0.326-0.305,0.634-0.523,0.91
	c-0.139,0.175-0.123,0.429,0.041,0.586c1.312,1.266-0.58,1.062-1.258,0.755c-0.615-0.278-0.973,0.766,0.166,0.771
	c0.311,0.002,0.607,0.134,0.816,0.367c0-0.001,0-0.001,0-0.001c0.586,0.648-0.758,0.436-1.586,0.144
	c-0.705-0.25-1.375-0.617-1.961-1.082c-0.371-0.295-0.514-0.794-0.352-1.239c0.16-0.445,0.59-0.737,1.064-0.725
	c0.684,0.018,1.268-0.489,1.348-1.168c0.08-0.68-0.373-1.307-1.043-1.446c-1.645-0.344-3.475-0.132-4.998-0.838
	c-1.314-0.607-2.406-0.499-2.74-0.942c-0.145-0.192-0.203-0.436-0.166-0.673c-0.709-0.137-1.156-0.223-1.461-0.285
	c-0.291-0.06-1.182-0.073-2.398,0.307c-2.627,0.834-5.117,3.271-5.117,3.271s-0.5,0.854-0.984,1.409
	c-0.441,0.505-0.775,1.116-1.268,1.573c-0.195,0.18-0.328,0.416-0.379,0.674c0,0.002-0.002,0.003-0.002,0.003
	c-0.004,0.001-0.006,0.002-0.008,0.002c-0.256,0.074-0.457,0.275-0.529,0.532c-0.32,1.139-1.215,2.836-6.02,4.855
	c0,0.001-0.002,0.001-0.002,0.001c-1.41,0.596-2.297,2.011-2.221,3.54c0.078,1.529,1.104,2.849,2.566,3.299
	c1.816,0.56,2.234-1.449,4.289-0.837c0.771,0.23,1.391,0.814,1.662,1.574c0.338,0.938,0.799,1.489,0.84,2.688
	c0.41,0.409,1.613,1.313,1.756,0.699c0.34-1.455,1.812-0.499,2.447-1.707c0.543-1.037-0.271-2.128,0.127-3.172
	c0.002-0.008,0.006-0.016,0.01-0.023c0.5-1.228,0.629-2.56,0.377-3.86c-0.117-0.606,0.037-1.526,0.328-3.272
	c0.115-0.681,1.453-1.035,1.773-1.536c0.557-0.869-0.373-2.528,1.014-2.839c0.693-0.154,1.939,0.166,2.1,0.884
	c0.061,0.255,0,0.523-0.162,0.729c-0.393,0.501-0.57,1.188-0.922,1.725c-0.707,1.082-0.859,2.44-0.408,3.651
	c0.389,1.043,1.018,1.988,2.014,2.068c0.285,0.023,0.572-0.049,0.812-0.206c0.002-0.001,0.002-0.001,0.004-0.002
	c0.002-0.002,0.004-0.003,0.006-0.003c0.004-0.001,0.004-0.001,0.006-0.002l1.43-0.501c1.184-0.414,2.461-0.495,3.688-0.229
	c0.117,0.025,0.211,0.113,0.24,0.229c0.031,0.115-0.008,0.238-0.096,0.318c-1.482,1.318-1.764,0.442-3.322,0.728
	c-0.533,0.096-0.943,0.525-1.012,1.063c-0.061,0.484,0.168,0.954,0.574,1.208c0.08,0.05,0.127,0.142,0.119,0.235
	c0,0.003-0.002,0.005-0.002,0.009c-0.033,0.47-0.328,0.883-0.762,1.066c-0.328,0.141-0.695,0.132-1.01-0.011
	c-0.244-0.109-0.527-0.086-0.754,0.062c-0.445,0.294-0.285,0.508-0.373,0.897c-0.137,0.623-0.104,1.273,0.105,1.877
	c0,0.001,0,0.001,0,0.001c0.34,0.992-1.492,2.768-2.234,2.632c-1.506-0.277-3.062-0.039-4.414,0.679
	c-0.641,0.34-1.424,0.239-1.957-0.25c-0.002-0.004-0.006-0.006-0.01-0.009c-0.355-0.326-0.018-0.472-0.463-0.751
	c-0.094-0.059-2.445,0.924-2.549,0.96c-0.109,0.04-0.229,0.027-0.324-0.034c-0.098-0.061-0.162-0.163-0.174-0.276
	c0-0.005,0-0.009-0.002-0.013c-0.08-0.679-3.133-0.591-0.752-3.234c0.004-0.004,0.006-0.009,0.012-0.012
	c0.246-0.271,0.357-0.643,0.299-1.006c-0.094-0.605,0.029-1.181-0.533-1.419c-0.002,0.003-0.004,0.005-0.006,0.007
	c-1.246,1.302-1.844,3.104-1.615,4.893c0.152,1.989-0.799,1.654-1.523,1.634c-0.307-0.009-0.6,0.119-0.797,0.35
	c-0.002,0.003-0.006,0.007-0.01,0.009c-0.289,0-0.701,0-1.395,0.066c-0.295,0.027-0.566,0.179-0.746,0.414
	c-0.02,0.025-0.029,0.059-0.023,0.089c0.025,0.167-0.082,0.324-0.246,0.363c-0.535,0.126-1.023,0.383-1.432,0.751
	c-0.949,0.86-1.436,1.221-2.428,1.775c-0.697,0.387-1.309,0.888-1.83,1.49c-0.219,0.252-0.684,0.527-1.783,1.15
	c-0.102,0.057-0.174,0.154-0.201,0.268c-0.055,0.237-0.252,0.417-0.492,0.453c-0.977,0.14-1.26-0.098-1.822-0.466
	c-0.287-0.19-0.51,0.204-0.439,0.46c0.002,0.004,0.004,0.009,0.004,0.013c0.068,0.246,0.021,0.51-0.127,0.718
	c-0.15,0.207-0.387,0.335-0.643,0.348c-0.674,0.032-1.35-0.11-1.951-0.415c-0.055-0.026-0.115-0.032-0.172-0.014
	c-0.98,0.313-1.557,1.488-1.314,1.514c1.691,0.183,1.662,0.478,2.34,0.908c0.805,0.51,0.416,2.079,1.637,2.211
	c0.006,0.001,0.012,0.001,0.02,0.002c0.152,0.013,0.277,1.25,0.307,1.405c0.02,0.116-0.029,0.232-0.127,0.298
	c-0.365,0.241-0.607,0.629-0.666,1.062c-0.109,0.821-0.025,1.694-0.578,2.398c-0.232,0.299-0.764,0.845-1.391,0.606
	c-0.668-0.255-1.383-0.406-2.098-0.439c-2.953-0.139-4.684-0.766-5.549-1.206c-0.637-0.323-1.414-0.17-1.879,0.373
	c-0.207,0.009-0.459,0.021-0.699,0.032c-0.436,0.025-0.742,0.438-0.641,0.859c0.23,0.959,0.232,1.934-0.891,4.806
	c-0.043,0.112-0.104,0.263-0.16,0.368c-0.363,0.679-1.676,2.007-1.357,2.359c0.035,0.039,0.086,0.062,0.141,0.062
	c0.271,0.007,0.514,0.178,0.613,0.433c0.082,0.218,0.098,0.455,0.041,0.681c-0.092,0.374-0.5,1.679-0.338,2.002
	c0.094,0.181,0.256,0.314,0.453,0.371c0.285,0.084,0.479,0.311,0.725,0.461c0.184,0.107,0.781-0.152,1.137-0.307
	c0.264-0.111,0.428-0.185,1.01,0.486c0.541,0.619,0.119,2.051,1.262,2.075c0.312,0.002,0.488-0.301,0.566-0.48
	c0.084-0.2,0.084-0.2,2.285-0.68c0.977-0.215,1.922,0.401,2.9,0.107c0.75-0.229,0.789-1.22,1.553-1.436
	c0.506-0.145,1.047,0.137,1.547-0.121c0.27-0.146,0.021-0.966,0.316-1.227c0-0.001,0.002-0.002,0.004-0.002
	c0.453-0.391,0.633-1.015,0.453-1.587c-0.084-0.274-0.066-0.357-0.025-0.553c0.051-0.237,0.77-0.649,1.182-1.6
	c0.037-0.08,0.078-0.155,0.131-0.204c1.35-1.233,3.176-1.521,4.703-2.396c1.342-0.77,0.406-2.841,1.99-3.471
	c1.467-0.583,2.555,1.451,4.062,0.591c1.598-0.912,3.586-2.049,4.006-2.067c0.434-0.021,0.826,0.087,1.158,0.238
	c0.504,0.231,0.932,0.607,1.225,1.079c1.449,2.33,4.213,3.319,5.896,5.407c0.254,0.313,1.539,1.081,2.027,1.539
	c0.793,0.741,0.34-0.224,1.027,0.968c0.004,0.005,0.008,0.012,0.01,0.018c0.338,0.521,0.932,1.44,0.369,1.678
	c-0.395,0.164-0.389,0.283-0.385,0.419c0.008,0.301-0.246,0.581-0.062,0.894c0.053,0.088,0.252,0.36,0.676,0.154
	c0.502-0.258,0.316-0.35,0.516-0.738c0.57-1.142,0.463-1.042,0.463-1.042c0.166-0.124,0.488-0.021,0.543-0.312
	c0.131-0.688-0.354-0.921-0.672-1.07c-0.201-0.1-0.582-0.278-0.354-0.867c0.006-0.015,0.012-0.03,0.02-0.045
	c0-0.004,0.004-0.01,0.006-0.016c0.24-0.517,0.846-0.749,1.371-0.527c0.383,0.165,0.678,0.244,0.82,0.641
	c0.025,0.071,0.041,0.14,0.039,0.193c-0.008,0.174-0.014,0.337,0.062,0.405c0.107,0.098,0.469,0.016,0.568-0.17
	c0.061-0.105,0.133-0.461,0.127-0.572c0-0.004,0-0.004,0-0.007s0-0.009-0.002-0.014c-0.002-0.017-0.01-0.033-0.018-0.047
	c-0.945-1.482-2.709-1.596-4.068-2.38c-0.152-0.087-0.248-0.24-0.264-0.403c-0.037-0.34-0.324-0.597-0.666-0.595
	c-0.834,0.009-1.619-0.398-2.094-1.087l-2.855-4.155c-0.119-0.173-0.232-0.354-0.336-0.54c-0.188-0.339-0.025-0.755,0.322-0.888
	c0.021-0.009,0.043-0.017,0.068-0.023c0.551-0.165,1.145,0.052,1.461,0.533c0.158,0.241,0.316,0.511,0.602,0.493
	c0.348-0.021,0.689,0.079,0.973,0.283l4.908,3.579c0.002,0.003,0.004,0.004,0.006,0.005c0,0,0.418,0.089,1.045,0.508
	c0.135,0.089,0.293,0.132,0.449,0.125c0.246-0.011,0.486,0.07,0.678,0.226c0.744,0.601,1.225,1.467,1.338,2.417
	c0.051,0.425,0.082,0.812,0.104,1.087c0,0.001,0,0.001,0,0.002c0.023,0.354,0.207,0.678,0.498,0.883
	c0.133,0.094,0.301,0.221,0.396,0.32c0.119,0.127,0.141,0.164,0.365,0.545c0.09,0.159,0.664,0.669,0.715,0.713
	c0.002,0.002,0.006,0.004,0.008,0.007c0.023,0.02,0.088,0.062,0.193,0.062c0.004,0,0.01,0,0.014,0
	c0.176,0.003,0.342-0.069,0.514-0.06c0.533,0.032,1.326,0.705,1.938,0.401c0.057-0.027,0.695-0.4,0.695-0.4l0.01-0.007
	c1.484-0.684-0.348-1.381-0.408-2.059c-0.02-0.245,0.068-0.424,0.23-0.535c0.154-0.104,0.352-0.128,0.551-0.034
	c0.111,0.05,0.244,0.036,0.344-0.035c0.002,0,0.002,0,0.002,0c0.121-0.087,0.203-0.215,0.234-0.359
	c0.16-0.778,0.961-1.006,1.746-1.006c0.658,0,1.307,0.166,1.881,0.485c0.232,0.13,0.502,0.192,0.773,0.177
	c0.512-0.03,0.998-0.205,1.41-0.509c0.193-0.143-0.246,0.383-1.215,0.75c-0.008,0.004-0.016,0.007-0.023,0.01
	c-0.406,0.166-0.629,0.598-0.531,1.023c0.197,0.854,1.979,1.699,0.812,2.799c-0.014,0.013-0.027,0.026-0.043,0.038
	c0.002,0.001,0.004,0.001,0.006,0.002c0.648,0.264,1.189,0.729,1.549,1.331c1.18,1.979,5.135,2.6,5.482,1.757
	c0.002-0.003,0.002-0.007,0.004-0.01c0.174-0.452,0.682-0.68,1.135-0.508c0.902,0.342,1.711,1.016,2.746,0.912
	c0.586-0.062,1.014-0.278,1.365-0.579c0.973-0.835,2.188-1.344,3.467-1.444c0.012,0,0.023,0.004,0.029,0.013
	c0.01,0.009,0.012,0.02,0.01,0.03c-0.643,3.775,3.559,7.968-0.586,11.392c-0.328,0.271-0.912,0.408-1.33,0.483
	c-3.74,0.66-7.527,0.068-11.279,0.322c-2.168,0.146-2.482-0.63-3.16-0.642c-0.004,0-0.008,0-0.01,0c-0.006,0-0.014,0-0.02,0
	c-0.732,0.015-0.871,0.016-1.963-0.233c-0.678-0.154-2.49-2.757-4.961-0.745c-0.707,0.577-1.131,1.327-1.109,1.757
	c0.307,6.176-7.295,1.635-7.859,0.957c-0.867-1.037-2.023-1.795-3.322-2.17c-1.43-0.413-3.152-0.974-4.24-1.542
	c-0.824-0.432-1.82-0.693-2.242-0.716c-0.152-0.023-0.229-0.774,0.236-1.243c1.229-1.239,1.613-1.737,1.223-2.395
	c-1.027-1.728-0.352-1.577-1.256-2.747c-0.002-0.003-0.006-0.008-0.01-0.011c-0.318-0.411-0.82-0.638-1.342-0.604
	c-15.361,0.979-18.666,1.425-21.697,2.878c-0.268,0.126-0.814,0.387-1.67,0.011c-0.656-0.289-1.398-0.316-2.074-0.08
	c-0.994-0.657-2.297-0.592-3.221,0.158l-5.002,4.065c-0.506,0.411-0.949,0.907-1.299,1.457c-0.902,1.426-0.844,2.494-0.818,3.008
	c0.082,1.603-4.498,4.555-6.92,4.279c-0.004-0.001-0.006-0.001-0.012-0.001c0-0.003,0-0.003,0-0.003
	c-1.109,0.446-2.064,0.835-7.631,8.597c-3.057,4.26-3.057,4.26-2.441,5.442c0.334,0.634,1.008,1.924,0.498,5.462
	c-0.029,0.229-0.076,0.462-0.131,0.688c-0.027,0.106-0.059,0.217-0.09,0.32l-2.143,7.12c-0.6,1.988-0.205,4.156,1.057,5.805
	c0.008,0.01,0.014,0.018,0.02,0.029l0.467,0.881c0.078,0.145,0.152,0.299,0.219,0.449c0.459,1.039,1.1,6.854,2.818,9.496
	c0.27,0.412,0.582,0.795,0.936,1.143l5.418,5.328c0.953,0.936,2.844,1.574,4.154,1.826c3.867,0.742,7.971,0.771,11.773,2.207
	c0.186,0.068,0.436,0.164,0.633,0.174c4.404,0.297,8.016-3.367,12.281-3.668c1.002-0.068,3.043,0.586,3.561,3.572
	c0.385,2.223,3.818,1.52,5.436,1.045c0.732-0.213,1.518-0.174,2.227,0.115c0.006,0.002,0.01,0.006,0.012,0.014
	c0,0.004,0,0.012,0.002,0.018c0.049,0.482,0.475,0.836,0.959,0.795c0.014,0,0.029,0,0.043-0.002
	c0.277-0.029,0.549,0.102,0.701,0.332c0.883,1.334,0.711,2.197,0.576,2.842c0,0.002,0,0.002,0,0.004
	c-0.004,0.008-0.004,0.016-0.006,0.023l-0.047,0.217c0,0.008-0.002,0.016-0.004,0.025c-0.035,0.16-0.062,0.326-0.086,0.49
	c-0.447,3.271-0.176,4.793-1.691,6.006c-0.164,0.133-0.289,0.299-0.373,0.492c1.643,3.371,5.227,5.082,5.227,5.082
	c0.525,0.559,3.615,5.885,3.943,8.236c0.502,3.578,0.502,2.898,0.594,3.053c1.58,2.584,0.199,3.801-0.766,4.293
	c-0.293,0.152-0.443,0.268-0.523,0.426c-0.145,0.283-0.312,0.566-0.494,0.826c-0.158,0.225-2.135,5.564-2.125,6.67
	c0,0.002,0,0.004,0,0.006c0.01,1.016,1.688,1.992,2.277,2.816l3.801,5.307c0.064,0.092,0.135,0.184,0.205,0.271
	c1.312,1.658-0.709,4.002,0.467,5.666c0.383,0.543,1.32,2.721,1.812,3.061c0.771,0.531,3.996,5.191,3.039,5.982
	c-0.102,0.084-0.088,0.311-0.045,0.438c0.289,0.832,4.195,2.158,5.639,1.541c2.145-0.916,6.641-1.633,8.475-1.619
	c2.533,0.02,14.729-8.725,13.768-11.738c-0.014-0.039-0.016-0.082-0.01-0.121c0-0.002,0-0.002,0-0.004
	c1.426-1.684,5.564-3.754,5.453-3.967c-0.004-0.002-0.006-0.006-0.008-0.01c0.537-1.189,0.723-2.178,0.73-2.961
	c0.025-2.131,1.049-4.125,2.762-5.389c1.461-1.082,3.59-2.623,6.713-4.885c1.949-1.41,2.932-2.412,2.764-8.498
	c-0.152-5.584-1.148-9.941-1.48-10.883c-0.469-1.32-0.338-1.564,0.189-2.547c1.566-2.893,3.691-5.445,5.191-8.383
	c2.383-4.67,5.311-7.414,6.914-8.9c0.07-0.066,0.135-0.133,0.197-0.205c2.902-3.402,4.57-8,5.625-12.314
	c0.225-0.914,0.58-1.783,0.848-2.682c0.201-0.68,0.496-1.264,0.855-4.781c0.062-0.602-0.271-1.141-0.242-1.738
	c0.133-2.318-0.662-0.273-1.342,0.053c-1.732,0.822-0.795,0.533-1.549,1.023c-0.367,0.23-3.164,1.219-3.5,1.531
	c-0.396,0.365-0.768,0.773-1.338,0.848c-3.443,0.432-4.053,0.508-4.66-0.055c-0.576-0.531-0.941-1.197-1.096-1.965
	c-0.16-0.805-0.568-1.553-1.186-2.131c-3.297-3.076-9.758-5.075-11.287-13.419c-0.232-1.253-9.412-14.512-11.297-17.194
	c-0.211-0.3-0.279-0.677-0.186-1.031c0-0.004,0-0.009,0.002-0.013c0.357,0.912,1.783,2.542,2.652,3.44
	c0.25,0.257,0.598,0.375,0.883,0.16c0.34-0.259,0.115-0.641,0.184-1.854c0.021-0.348,0.523-0.373,0.58-0.031
	c0.127,0.758,0.494,1.449,1.047,1.983c1.219,1.176,2.705,3.357,3.682,4.893c0.6,0.94,1.412,1.707,2.385,2.256
	c1.393,0.787,1.811,2.074,2.805,5.127c1.18,3.616,5.412,4.479,6.977,7.746c1.324,2.754,1.678,5.894,3.361,8.508
	c0.012,0.02,0.023,0.037,0.035,0.055c0.215,0.291,0.582,0.426,0.934,0.344c2.561-0.602,5.531-3.806,6.266-4.379
	c1.545-1.204,2.666-2.108,3.49-2.802c1.123-0.943,1.902-2.216,2.238-3.644c0.281-1.203,2.111-2.256,2.662-2.259
	c1.43-0.011,0.787-1.869,1.385-2.701c0.637-0.879,0.684-1.861,1.416-2.64c0.234-0.25,0.51-0.453,0.818-0.605
	c0.031-0.015,0.053-0.044,0.059-0.078c0.18-0.938-0.408-1.794-0.398-2.715c0.002-0.237,0.223-0.42,0.459-0.373
	c0.008,0.002,0.018,0,0.023-0.005c0.008-0.005,0.012-0.013,0.014-0.021c0.508-2.896,1.484-5.341-1.078-6.543
	c-1.008-0.48-2.23,0.275-3.18-0.542c-0.006-0.005-0.012-0.009-0.018-0.014c-0.518-0.448-1.217-0.629-1.889-0.491
	c-0.672,0.14-1.24,0.581-1.541,1.197c-0.002,0.006-0.004,0.011-0.006,0.016c-0.264,0.534-0.773,0.904-1.361,0.986
	c-0.955,0.135-0.848,0.306-1.582,0.857c0,0.002-0.002,0.002-0.002,0.002c-1.553-0.814-2.516-0.887-7.998-9.061
	c-1.637-2.436,0.59-3.654,1.357-2.763c0.002,0.001,0.004-0.003,0.004-0.003c0-0.001,0.004-0.001,0.006-0.002
	c0.682,0.739,3.459,3.681,5.713,4.938c0.766,0.427,3.08,1.012,3.504,0.237c1.564-2.865,2.691-0.788,2.91-0.328
	c1.152,2.45,4.363,0.314,5.078,0.351c1.562,0.079,1.422-0.242,5.9-2.775c1.773-1.006,3.906-1.161,5.809-0.424
	c1.9,0.736,3.369,2.291,4.004,4.229c2.027,6.182,4.012,17.879,4.012,29.454C367.792,322.492,317.741,372.543,255.999,372.543z
	 M238.009,189.399c-0.027-0.151-0.039-0.529,0.043-0.72c0.232-0.524,0.779-0.751,1.109-1.178c0.4-0.519,0.328-0.585,0.189-0.705
	c-0.184-0.167-0.137-0.31-0.004-0.471c0.156-0.196,0.361-0.351,0.514-0.55c0.131-0.163,0.154-0.389,0.33-0.524
	c0.229-0.181,0.387-0.17,0.729-0.151c0.27,0.017,0.918-1.159,1.725-1.366c0.775-0.2,2.016,1.291,1.664,1.81
	c-0.072,0.115-0.273,0.143-0.488,0.173c-0.221,0.032-0.348,0.047-0.535,0.605c-0.072,0.209,0.168,0.497-0.105,0.646
	c-0.242,0.131-0.049,0.392-0.125,0.575c-0.16,0.37-0.502,0.832-0.701,1.085c-0.205,0.258-0.797,0.074-1.475,0.26
	c-0.004,0.001-0.01,0.003-0.014,0.005c-0.492,0.132-0.926,0.41-1.389,0.612C238.964,189.727,238.114,189.946,238.009,189.399z"/>
</svg>
